<svg xmlns="http://www.w3.org/2000/svg" xmlns:xlink="http://www.w3.org/1999/xlink" width="500" zoomAndPan="magnify" viewBox="0 0 375 374.999991" height="500" preserveAspectRatio="xMidYMid meet" version="1.0"><defs><g/></defs><rect x="-37.5" width="450" fill="#ffffff" y="-37.499999" height="449.999989" fill-opacity="1"/><g fill="#000000" fill-opacity="1"><g transform="translate(15.891028, 349.403254)"><g><path d="M 63.046875 -90.859375 C 63.046875 -76.625 43.96875 -76.625 43.96875 -76.625 L 24.578125 -76.625 L 24.578125 -106.21875 L 43.96875 -106.21875 C 43.96875 -106.21875 63.046875 -106.375 63.046875 -90.859375 Z M 87.78125 -92.3125 C 87.78125 -130.3125 43.96875 -129.34375 43.96875 -129.34375 L 1.78125 -129.34375 C 0.8125 -129.34375 0 -128.53125 0 -127.875 L 0 -52.546875 L 43.96875 -52.546875 C 43.96875 -52.546875 64.828125 -53.515625 64.828125 -38.3125 C 64.828125 -25.875 52.0625 -23.609375 43.96875 -23.609375 L 24.734375 -23.609375 L 24.734375 0 L 43.96875 0 C 52.703125 0 89.5625 -1.609375 89.5625 -37.671875 C 89.5625 -37.671875 90.375 -57.71875 69.84375 -64.671875 C 79.703125 -68.703125 87.78125 -77.28125 87.78125 -92.3125 Z M 87.78125 -92.3125 "/></g></g></g><g fill="#000000" fill-opacity="1"><g transform="translate(109.984105, 349.403254)"><g><path d="M 74.375 -64.34375 C 74.375 -71.140625 69.03125 -76.625 62.25 -76.625 C 55.453125 -76.625 50.125 -71.140625 50.125 -64.34375 C 50.125 -57.71875 55.453125 -52.21875 62.25 -52.21875 C 69.03125 -52.21875 74.375 -57.71875 74.375 -64.34375 Z M 124.484375 -64.828125 C 124.484375 -97 103.625 -129.34375 62.40625 -129.34375 C 20.53125 -129.34375 0 -97 0 -64.828125 C 0 -32.5 20.53125 0 62.40625 0 C 103.625 0 124.484375 -32.5 124.484375 -64.828125 Z M 100.234375 -64.34375 C 100.234375 -43.484375 87.46875 -22.640625 62.40625 -22.640625 C 37.015625 -22.640625 24.40625 -43.484375 24.40625 -64.34375 C 24.40625 -85.53125 37.015625 -106.546875 62.40625 -106.546875 C 87.46875 -106.546875 100.234375 -85.53125 100.234375 -64.34375 Z M 100.234375 -64.34375 "/></g></g></g><g fill="#000000" fill-opacity="1"><g transform="translate(240.615053, 349.403254)"><g><path d="M 117.859375 -129.34375 L 91.984375 -129.34375 C 91.671875 -129.34375 90.703125 -129.171875 90.53125 -128.859375 L 59.984375 -85.6875 L 46.40625 -104.609375 L 16.328125 -104.609375 C 25.875 -91.1875 35.25 -77.765625 44.78125 -64.671875 L 0.484375 -2.421875 C -0.484375 -1.296875 0.15625 0 1.78125 0 L 27.640625 0 C 27.96875 0 28.9375 -0.15625 29.09375 -0.484375 L 59.984375 -43.65625 L 73.40625 -24.734375 L 103.46875 -24.734375 C 93.9375 -38.15625 84.390625 -51.578125 74.859375 -64.671875 L 119.46875 -126.90625 C 120.28125 -128.046875 119.640625 -129.34375 117.859375 -129.34375 Z M 117.859375 -129.34375 "/></g></g></g><g fill="#000000" fill-opacity="1"><g transform="translate(5.106678, 179.724154)"><g><path d="M 60.953125 -87.828125 C 60.953125 -74.078125 42.515625 -74.078125 42.515625 -74.078125 L 23.75 -74.078125 L 23.75 -102.671875 L 42.515625 -102.671875 C 42.515625 -102.671875 60.953125 -102.828125 60.953125 -87.828125 Z M 84.859375 -89.234375 C 84.859375 -125.96875 42.515625 -125.03125 42.515625 -125.03125 L 1.71875 -125.03125 C 0.78125 -125.03125 0 -124.25 0 -123.625 L 0 -50.796875 L 42.515625 -50.796875 C 42.515625 -50.796875 62.671875 -51.734375 62.671875 -37.03125 C 62.671875 -25 50.328125 -22.8125 42.515625 -22.8125 L 23.90625 -22.8125 L 23.90625 0 L 42.515625 0 C 50.953125 0 86.578125 -1.5625 86.578125 -36.40625 C 86.578125 -36.40625 87.359375 -55.796875 67.515625 -62.515625 C 77.046875 -66.421875 84.859375 -74.703125 84.859375 -89.234375 Z M 84.859375 -89.234375 "/></g></g></g><g fill="#000000" fill-opacity="1"><g transform="translate(96.05739, 179.724154)"><g><path d="M 67.515625 -23.28125 L 0 -23.28125 L 0 -1.40625 C 0 -0.78125 0.78125 0 1.71875 0 L 67.515625 0 C 68.609375 0 69.234375 -0.78125 69.234375 -1.40625 L 69.234375 -21.71875 C 69.234375 -22.5 68.609375 -23.28125 67.515625 -23.28125 Z M 23.90625 -47.203125 L 23.90625 -123.625 C 23.90625 -124.25 23.28125 -125.03125 22.34375 -125.03125 L 1.71875 -125.03125 C 0.78125 -125.03125 0 -124.25 0 -123.625 L 0 -47.203125 Z M 23.90625 -47.203125 "/></g></g></g><g fill="#000000" fill-opacity="1"><g transform="translate(168.880461, 179.724154)"><g><path d="M 98.140625 -1.875 L 50.640625 -124.09375 C 50.171875 -125.34375 47.984375 -125.34375 47.515625 -124.09375 L 0.15625 -1.875 C -0.3125 -0.9375 0.3125 0 1.71875 0 L 23.125 0 C 23.75 0 24.53125 -0.3125 24.6875 -0.9375 L 49.078125 -70.640625 L 73.765625 -0.9375 C 73.921875 -0.3125 74.703125 0 75.171875 0 L 96.734375 0 C 97.828125 0 98.609375 -0.9375 98.140625 -1.875 Z M 98.140625 -1.875 "/></g></g></g><g fill="#000000" fill-opacity="1"><g transform="translate(272.020445, 179.724154)"><g><path d="M 99.703125 -2.34375 L 49.546875 -61.421875 L 99.234375 -122.6875 C 100.328125 -123.78125 99.546875 -125.03125 97.828125 -125.03125 L 72.359375 -125.03125 C 72.046875 -125.03125 71.109375 -124.71875 70.953125 -124.5625 L 23.90625 -66.734375 L 23.90625 -123.625 C 23.90625 -124.25 23.28125 -125.03125 22.34375 -125.03125 L 1.71875 -125.03125 C 0.78125 -125.03125 0 -124.25 0 -123.625 L 0 -7.65625 C 0 -7.65625 30.46875 -42.203125 33.59375 -45.484375 L 70.015625 -0.46875 C 70.171875 -0.3125 71.109375 0 71.421875 0 L 98.296875 0 C 99.859375 0 100.640625 -1.09375 99.703125 -2.34375 Z M 99.703125 -2.34375 "/></g></g></g></svg>