<svg xmlns="http://www.w3.org/2000/svg" xmlns:xlink="http://www.w3.org/1999/xlink" width="500" zoomAndPan="magnify" viewBox="0 0 375 374.999991" height="500" preserveAspectRatio="xMidYMid meet" version="1.0"><defs><g/></defs><g fill="#000000" fill-opacity="1"><g transform="translate(20.488565, 344.798406)"><g><path d="M 61.265625 -88.28125 C 61.265625 -74.453125 42.71875 -74.453125 42.71875 -74.453125 L 23.875 -74.453125 L 23.875 -103.203125 L 42.71875 -103.203125 C 42.71875 -103.203125 61.265625 -103.359375 61.265625 -88.28125 Z M 85.296875 -89.6875 C 85.296875 -126.609375 42.71875 -125.65625 42.71875 -125.65625 L 1.734375 -125.65625 C 0.78125 -125.65625 0 -124.875 0 -124.25 L 0 -51.046875 L 42.71875 -51.046875 C 42.71875 -51.046875 62.984375 -52 62.984375 -37.234375 C 62.984375 -25.125 50.578125 -22.9375 42.71875 -22.9375 L 24.03125 -22.9375 L 24.03125 0 L 42.71875 0 C 51.203125 0 87.015625 -1.578125 87.015625 -36.59375 C 87.015625 -36.59375 87.8125 -56.078125 67.859375 -62.828125 C 77.4375 -66.765625 85.296875 -75.078125 85.296875 -89.6875 Z M 85.296875 -89.6875 "/></g></g></g><g fill="#000000" fill-opacity="1"><g transform="translate(111.90545, 344.798406)"><g><path d="M 72.25 -62.515625 C 72.25 -69.109375 67.078125 -74.453125 60.46875 -74.453125 C 53.875 -74.453125 48.6875 -69.109375 48.6875 -62.515625 C 48.6875 -56.078125 53.875 -50.734375 60.46875 -50.734375 C 67.078125 -50.734375 72.25 -56.078125 72.25 -62.515625 Z M 120.953125 -62.984375 C 120.953125 -94.25 100.6875 -125.65625 60.625 -125.65625 C 19.953125 -125.65625 0 -94.25 0 -62.984375 C 0 -31.578125 19.953125 0 60.625 0 C 100.6875 0 120.953125 -31.578125 120.953125 -62.984375 Z M 97.390625 -62.515625 C 97.390625 -42.25 84.984375 -21.984375 60.625 -21.984375 C 35.96875 -21.984375 23.71875 -42.25 23.71875 -62.515625 C 23.71875 -83.09375 35.96875 -103.515625 60.625 -103.515625 C 84.984375 -103.515625 97.390625 -83.09375 97.390625 -62.515625 Z M 97.390625 -62.515625 "/></g></g></g><g fill="#000000" fill-opacity="1"><g transform="translate(238.820997, 344.798406)"><g><path d="M 114.515625 -125.65625 L 89.375 -125.65625 C 89.0625 -125.65625 88.125 -125.5 87.96875 -125.1875 L 58.28125 -83.25 L 45.078125 -101.625 L 15.859375 -101.625 C 25.125 -88.59375 34.25 -75.546875 43.515625 -62.828125 L 0.46875 -2.359375 C -0.46875 -1.25 0.15625 0 1.734375 0 L 26.859375 0 C 27.171875 0 28.109375 -0.15625 28.28125 -0.46875 L 58.28125 -42.40625 L 71.3125 -24.03125 L 100.53125 -24.03125 C 91.265625 -37.078125 82 -50.109375 72.734375 -62.828125 L 116.078125 -123.3125 C 116.859375 -124.40625 116.234375 -125.65625 114.515625 -125.65625 Z M 114.515625 -125.65625 "/></g></g></g><g fill="#000000" fill-opacity="1"><g transform="translate(10.010942, 179.945315)"><g><path d="M 59.21875 -85.328125 C 59.21875 -71.96875 41.296875 -71.96875 41.296875 -71.96875 L 23.078125 -71.96875 L 23.078125 -99.75 L 41.296875 -99.75 C 41.296875 -99.75 59.21875 -99.90625 59.21875 -85.328125 Z M 82.4375 -86.6875 C 82.4375 -122.375 41.296875 -121.46875 41.296875 -121.46875 L 1.671875 -121.46875 C 0.765625 -121.46875 0 -120.703125 0 -120.09375 L 0 -49.34375 L 41.296875 -49.34375 C 41.296875 -49.34375 60.890625 -50.25 60.890625 -35.984375 C 60.890625 -24.296875 48.890625 -22.171875 41.296875 -22.171875 L 23.234375 -22.171875 L 23.234375 0 L 41.296875 0 C 49.5 0 84.109375 -1.515625 84.109375 -35.375 C 84.109375 -35.375 84.875 -54.203125 65.59375 -60.734375 C 74.84375 -64.53125 82.4375 -72.578125 82.4375 -86.6875 Z M 82.4375 -86.6875 "/></g></g></g><g fill="#000000" fill-opacity="1"><g transform="translate(98.374837, 179.945315)"><g><path d="M 65.59375 -22.625 L 0 -22.625 L 0 -1.359375 C 0 -0.765625 0.765625 0 1.671875 0 L 65.59375 0 C 66.65625 0 67.265625 -0.765625 67.265625 -1.359375 L 67.265625 -21.109375 C 67.265625 -21.859375 66.65625 -22.625 65.59375 -22.625 Z M 23.234375 -45.859375 L 23.234375 -120.09375 C 23.234375 -120.703125 22.625 -121.46875 21.71875 -121.46875 L 1.671875 -121.46875 C 0.765625 -121.46875 0 -120.703125 0 -120.09375 L 0 -45.859375 Z M 23.234375 -45.859375 "/></g></g></g><g fill="#000000" fill-opacity="1"><g transform="translate(169.126677, 179.945315)"><g><path d="M 95.34375 -1.828125 L 49.1875 -120.546875 C 48.734375 -121.765625 46.609375 -121.765625 46.15625 -120.546875 L 0.15625 -1.828125 C -0.296875 -0.90625 0.296875 0 1.671875 0 L 22.46875 0 C 23.078125 0 23.84375 -0.296875 23.984375 -0.90625 L 47.671875 -68.625 L 71.65625 -0.90625 C 71.8125 -0.296875 72.578125 0 73.03125 0 L 93.984375 0 C 95.046875 0 95.796875 -0.90625 95.34375 -1.828125 Z M 95.34375 -1.828125 "/></g></g></g><g fill="#000000" fill-opacity="1"><g transform="translate(269.333157, 179.945315)"><g><path d="M 96.859375 -2.28125 L 48.125 -59.671875 L 96.40625 -119.1875 C 97.46875 -120.25 96.71875 -121.46875 95.046875 -121.46875 L 70.296875 -121.46875 C 70 -121.46875 69.078125 -121.15625 68.9375 -121 L 23.234375 -64.828125 L 23.234375 -120.09375 C 23.234375 -120.703125 22.625 -121.46875 21.71875 -121.46875 L 1.671875 -121.46875 C 0.765625 -121.46875 0 -120.703125 0 -120.09375 L 0 -7.4375 C 0 -7.4375 29.609375 -41 32.640625 -44.1875 L 68.015625 -0.453125 C 68.171875 -0.296875 69.078125 0 69.390625 0 L 95.5 0 C 97.015625 0 97.78125 -1.0625 96.859375 -2.28125 Z M 96.859375 -2.28125 "/></g></g></g></svg>