<svg xmlns="http://www.w3.org/2000/svg" xmlns:xlink="http://www.w3.org/1999/xlink" width="500" zoomAndPan="magnify" viewBox="0 0 375 374.999991" height="500" preserveAspectRatio="xMidYMid meet" version="1.0"><defs><g/></defs><g fill="#ff914d" fill-opacity="1"><g transform="translate(5.850157, 254.808353)"><g><path d="M 51.9375 -20.359375 L 20.90625 -20.359375 L 20.90625 -44.96875 L 63.828125 -44.96875 C 64.65625 -44.96875 65.34375 -45.65625 65.34375 -46.203125 L 65.34375 -63.5625 C 65.34375 -64.25 64.65625 -64.796875 63.828125 -64.796875 L 20.90625 -64.796875 L 20.90625 -89.53125 L 51.9375 -89.53125 L 51.9375 -109.34375 L 1.5 -109.34375 C 0.6875 -109.34375 0 -108.671875 0 -108.125 L 0 -1.234375 C 0 -0.6875 0.6875 0 1.5 0 L 51.9375 0 Z M 51.9375 -20.359375 "/></g></g></g><g fill="#ff914d" fill-opacity="1"><g transform="translate(74.461363, 254.808353)"><g><path d="M 62.46875 -20.09375 C 49.203125 -19.546875 21.046875 -20.90625 21.046875 -54.671875 C 21.046875 -80.640625 38.6875 -90.625 62.46875 -89.390625 L 62.46875 -65.203125 L 83.375 -65.203125 L 83.375 -108.125 C 83.375 -108.671875 82.828125 -109.34375 81.875 -109.34375 L 64.109375 -109.34375 C 37.3125 -109.34375 0 -103.203125 0 -54.671875 C 0 -7.921875 36.90625 0 64.109375 0 L 81.875 0 C 82.828125 0 83.375 -0.6875 83.375 -1.234375 L 83.375 -20.09375 Z M 62.46875 -20.09375 "/></g></g></g><g fill="#ff914d" fill-opacity="1"><g transform="translate(162.070492, 254.808353)"><g><path d="M 62.875 -54.40625 C 62.875 -60.140625 58.359375 -64.796875 52.625 -64.796875 C 46.890625 -64.796875 42.375 -60.140625 42.375 -54.40625 C 42.375 -48.796875 46.890625 -44.15625 52.625 -44.15625 C 58.359375 -44.15625 62.875 -48.796875 62.875 -54.40625 Z M 105.25 -54.8125 C 105.25 -82.015625 87.609375 -109.34375 52.765625 -109.34375 C 17.359375 -109.34375 0 -82.015625 0 -54.8125 C 0 -27.46875 17.359375 0 52.765625 0 C 87.609375 0 105.25 -27.46875 105.25 -54.8125 Z M 84.75 -54.40625 C 84.75 -36.765625 73.953125 -19.140625 52.765625 -19.140625 C 31.296875 -19.140625 20.640625 -36.765625 20.640625 -54.40625 C 20.640625 -72.3125 31.296875 -90.078125 52.765625 -90.078125 C 73.953125 -90.078125 84.75 -72.3125 84.75 -54.40625 Z M 84.75 -54.40625 "/></g></g></g><g fill="#ff914d" fill-opacity="1"><g transform="translate(272.50446, 254.808353)"><g><path d="M 90.484375 -109.34375 L 72.859375 -109.34375 C 71.890625 -109.34375 71.21875 -108.671875 71.21875 -108.125 L 71.21875 -36.90625 L 20.78125 -108.9375 C 20.640625 -109.21875 19.8125 -109.34375 19.546875 -109.34375 L 1.359375 -109.34375 C 0.6875 -109.34375 0 -108.671875 0 -108.125 L 0 -26.25 L 20.90625 -26.25 L 20.90625 -72.4375 L 71.21875 -0.40625 C 71.34375 -0.140625 72.171875 0 72.4375 0 L 90.484375 0 C 91.4375 0 91.984375 -0.6875 91.984375 -1.234375 L 91.984375 -108.125 C 91.984375 -108.671875 91.4375 -109.34375 90.484375 -109.34375 Z M 90.484375 -109.34375 "/></g></g></g></svg>